HIERARCHY
ROOT Hips
{
	OFFSET -14.64140 90.27770 -84.91600
	CHANNELS 6 Xposition Yposition Zposition Zrotation Xrotation Yrotation
	JOINT Spine
	{
		OFFSET 0.00000 13.20850 -1.60436
		CHANNELS 3 Zrotation Xrotation Yrotation
		JOINT Spine1
		{
			OFFSET 0.00000 8.61716 0.00000
			CHANNELS 3 Zrotation Xrotation Yrotation
			JOINT Spine2
			{
				OFFSET 0.00000 8.61717 0.00000
				CHANNELS 3 Zrotation Xrotation Yrotation
				JOINT Spine3
				{
					OFFSET 0.00000 8.61717 0.00000
					CHANNELS 3 Zrotation Xrotation Yrotation
					JOINT Neck
					{
						OFFSET 0.00000 11.07920 1.10792
						CHANNELS 3 Zrotation Xrotation Yrotation
						JOINT Neck1
						{
							OFFSET 0.00000 7.08032 0.00000
							CHANNELS 3 Zrotation Xrotation Yrotation
							JOINT Head
							{
								OFFSET 0.00000 7.08031 0.00000
								CHANNELS 3 Zrotation Xrotation Yrotation
								End site
								{
									OFFSET 0.00000 0.00000 0.00000
								}
							}
						}
					}
					JOINT RightShoulder
					{
						OFFSET -0.01000 7.91373 5.19711
						CHANNELS 3 Zrotation Xrotation Yrotation
						JOINT RightArm
						{
							OFFSET -18.41580 0.00000 0.00000
							CHANNELS 3 Zrotation Xrotation Yrotation
							JOINT RightForeArm
							{
								OFFSET -29.11090 0.00000 0.00000
								CHANNELS 3 Zrotation Xrotation Yrotation
								JOINT RightHand
								{
									OFFSET -24.65040 0.00000 0.00000
									CHANNELS 3 Zrotation Xrotation Yrotation
									JOINT RightHandThumb1
									{
										OFFSET -5.35114 -0.85590 3.97906
										CHANNELS 3 Zrotation Xrotation Yrotation
										JOINT RightHandThumb2
										{
											OFFSET -4.52789 0.00000 0.00000
											CHANNELS 3 Zrotation Xrotation Yrotation
											JOINT RightHandThumb3
											{
												OFFSET -2.46976 0.00000 0.00000
												CHANNELS 3 Zrotation Xrotation Yrotation
												End site
												{
													OFFSET 0.00000 0.00000 0.00000
												}
											}
										}
									}
									JOINT RightHandIndex1
									{
										OFFSET -14.26970 0.00000 2.88139
										CHANNELS 3 Zrotation Xrotation Yrotation
										JOINT RightHandIndex2
										{
											OFFSET -5.48836 0.00000 0.00000
											CHANNELS 3 Zrotation Xrotation Yrotation
											JOINT RightHandIndex3
											{
												OFFSET -3.01859 0.00000 0.00000
												CHANNELS 3 Zrotation Xrotation Yrotation
												End site
												{
													OFFSET 0.00000 0.00000 0.00000
												}
											}
										}
									}
									JOINT RightHandMiddle1
									{
										OFFSET -14.26970 0.00000 -0.09147
										CHANNELS 3 Zrotation Xrotation Yrotation
										JOINT RightHandMiddle2
										{
											OFFSET -6.17441 0.00000 0.00000
											CHANNELS 3 Zrotation Xrotation Yrotation
											JOINT RightHandMiddle3
											{
												OFFSET -3.56743 0.00000 0.00000
												CHANNELS 3 Zrotation Xrotation Yrotation
												End site
												{
													OFFSET 0.00000 0.00000 0.00000
												}
											}
										}
									}
									JOINT RightHandRing1
									{
										OFFSET -12.69180 0.00000 -3.06433
										CHANNELS 3 Zrotation Xrotation Yrotation
										JOINT RightHandRing2
										{
											OFFSET -5.62556 0.00000 0.00000
											CHANNELS 3 Zrotation Xrotation Yrotation
											JOINT RightHandRing3
											{
												OFFSET -3.56744 0.00000 0.00000
												CHANNELS 3 Zrotation Xrotation Yrotation
												End site
												{
													OFFSET 0.00000 0.00000 0.00000
												}
											}
										}
									}
									JOINT RightHandPinky1
									{
										OFFSET -11.11390 0.00000 -6.03719
										CHANNELS 3 Zrotation Xrotation Yrotation
										JOINT RightHandPinky2
										{
											OFFSET -4.52789 0.00000 0.00000
											CHANNELS 3 Zrotation Xrotation Yrotation
											JOINT RightHandPinky3
											{
												OFFSET -2.46976 0.00000 0.00000
												CHANNELS 3 Zrotation Xrotation Yrotation
												End site
												{
													OFFSET 0.00000 0.00000 0.00000
												}
											}
										}
									}
								}
							}
						}
					}
					JOINT LeftShoulder
					{
						OFFSET 0.01000 7.91373 5.19711
						CHANNELS 3 Zrotation Xrotation Yrotation
						JOINT LeftArm
						{
							OFFSET 18.41580 0.00000 0.00000
							CHANNELS 3 Zrotation Xrotation Yrotation
							JOINT LeftForeArm
							{
								OFFSET 29.11090 0.00000 0.00000
								CHANNELS 3 Zrotation Xrotation Yrotation
								JOINT LeftHand
								{
									OFFSET 24.65040 0.00000 0.00000
									CHANNELS 3 Zrotation Xrotation Yrotation
									JOINT LeftHandThumb1
									{
										OFFSET 5.35114 -0.85590 3.97906
										CHANNELS 3 Zrotation Xrotation Yrotation
										JOINT LeftHandThumb2
										{
											OFFSET 4.52789 0.00000 0.00000
											CHANNELS 3 Zrotation Xrotation Yrotation
											JOINT LeftHandThumb3
											{
												OFFSET 2.46977 0.00000 0.00000
												CHANNELS 3 Zrotation Xrotation Yrotation
												End site
												{
													OFFSET 0.00000 0.00000 0.00000
												}
											}
										}
									}
									JOINT LeftHandIndex1
									{
										OFFSET 14.26970 0.00000 2.88139
										CHANNELS 3 Zrotation Xrotation Yrotation
										JOINT LeftHandIndex2
										{
											OFFSET 5.48836 0.00000 0.00000
											CHANNELS 3 Zrotation Xrotation Yrotation
											JOINT LeftHandIndex3
											{
												OFFSET 3.01859 0.00000 0.00000
												CHANNELS 3 Zrotation Xrotation Yrotation
												End site
												{
													OFFSET 0.00000 0.00000 0.00000
												}
											}
										}
									}
									JOINT LeftHandMiddle1
									{
										OFFSET 14.26970 0.00000 -0.09147
										CHANNELS 3 Zrotation Xrotation Yrotation
										JOINT LeftHandMiddle2
										{
											OFFSET 6.17440 0.00000 0.00000
											CHANNELS 3 Zrotation Xrotation Yrotation
											JOINT LeftHandMiddle3
											{
												OFFSET 3.56744 0.00000 0.00000
												CHANNELS 3 Zrotation Xrotation Yrotation
												End site
												{
													OFFSET 0.00000 0.00000 0.00000
												}
											}
										}
									}
									JOINT LeftHandRing1
									{
										OFFSET 12.69180 0.00000 -3.06433
										CHANNELS 3 Zrotation Xrotation Yrotation
										JOINT LeftHandRing2
										{
											OFFSET 5.62556 0.00000 0.00000
											CHANNELS 3 Zrotation Xrotation Yrotation
											JOINT LeftHandRing3
											{
												OFFSET 3.56744 0.00000 0.00000
												CHANNELS 3 Zrotation Xrotation Yrotation
												End site
												{
													OFFSET 0.00000 0.00000 0.00000
												}
											}
										}
									}
									JOINT LeftHandPinky1
									{
										OFFSET 11.11390 0.00000 -6.03719
										CHANNELS 3 Zrotation Xrotation Yrotation
										JOINT LeftHandPinky2
										{
											OFFSET 4.52789 0.00000 0.00000
											CHANNELS 3 Zrotation Xrotation Yrotation
											JOINT LeftHandPinky3
											{
												OFFSET 2.46976 0.00000 0.00000
												CHANNELS 3 Zrotation Xrotation Yrotation
												End site
												{
													OFFSET 0.00000 0.00000 0.00000
												}
											}
										}
									}
								}
							}
						}
					}
					JOINT pCube4
					{
						OFFSET 0.00000 10.91090 1.10792
						CHANNELS 3 Zrotation Xrotation Yrotation
						End site
						{
							OFFSET 0.00000 0.00000 0.00000
						}
					}
				}
			}
		}
	}
	JOINT RightUpLeg
	{
		OFFSET -9.98441 0.00000 0.00000
		CHANNELS 3 Zrotation Xrotation Yrotation
		JOINT RightLeg
		{
			OFFSET 0.00000 -42.11790 0.00000
			CHANNELS 3 Zrotation Xrotation Yrotation
			JOINT RightFoot
			{
				OFFSET 0.00000 -45.00020 -0.00001
				CHANNELS 3 Zrotation Xrotation Yrotation
				JOINT RightForeFoot
				{
					OFFSET 0.00000 -3.74820 0.00000
					CHANNELS 3 Zrotation Xrotation Yrotation
					JOINT RightToeBase
					{
						OFFSET 0.00000 0.06325 14.43120
						CHANNELS 3 Zrotation Xrotation Yrotation
						End site
						{
							OFFSET 0.00000 0.00000 0.00000
						}
					}
				}
			}
		}
	}
	JOINT LeftUpLeg
	{
		OFFSET 9.98441 0.00000 0.00000
		CHANNELS 3 Zrotation Xrotation Yrotation
		JOINT LeftLeg
		{
			OFFSET 0.00000 -42.11800 0.00000
			CHANNELS 3 Zrotation Xrotation Yrotation
			JOINT LeftFoot
			{
				OFFSET 0.00000 -45.00070 0.00000
				CHANNELS 3 Zrotation Xrotation Yrotation
				JOINT LeftForeFoot
				{
					OFFSET 0.00000 -3.74824 0.00000
					CHANNELS 3 Zrotation Xrotation Yrotation
					JOINT LeftToeBase
					{
						OFFSET 0.00000 0.06325 14.43110
						CHANNELS 3 Zrotation Xrotation Yrotation
						End site
						{
							OFFSET 0.00000 0.00000 0.00000
						}
					}
				}
			}
		}
	}
}
MOTION
Frames: 4
Frame Time: 0.050000
-0.00048511806168898756 0.022556530621623855 0.010874866332282563 -0.018588117359146963 0.0047555432897396725 -0.0042827954018880435 3.3073853522580214 2.3785401678603084 -1.849736294448277 -0.5806823655760079 3.723176969333164 0.38855111424284416 -0.6382701267466974 -1.499968131226057 1.1304648146292875 -0.5293831761243135 -0.41626370884472785 -0.2476176807597943 0.10966447526973488 13.46850131884871 -1.6520263089865148 0.3413542288940364 -0.056048241999137445 -4.279598645262479 0.9185753944749407 -15.871400852619743 -0.34867563494297027 -7.798938309097021 2.8644481719828825 -16.522037386407145 76.1537576831858 15.264816726378475 10.551325462242072 1.4335826933204558 0.7804750624847934 89.53885574680481 21.213654269606014 -0.5569249927743342 -4.3759108356536744 4.52582297144392 -0.08101466167161409 -1.5839371048010689 0.0022191471499413947 -0.021391581004089194 -56.22752723866422 0.020340173769375348 0.019311593738718377 -56.26078542696031 -38.81595228832357 0.014031530587106343 0.011147954056512366 0.04235177763854601 0.02371995938720514 0.031479492479222576 -0.03019473210391464 -0.0007070841820826897 -0.024427835689349323 -36.69123423021484 0.049123507237529195 0.043702669149511465 -0.020779593130874904 -0.011994133422486558 -0.015295471321733279 0.020475083968938327 0.04014127151287118 0.018904489959321466 -19.721440895595528 0.033293078934018054 -0.027671258614564192 0.011158687169952901 0.008482508541890924 0.0054869895987306 -0.03081363915200962 0.038009198287284246 -0.019566672154364174 24.072576533235697 -0.04115794436759599 -0.02579013987995953 28.861297698287075 0.03486480878238358 -0.040592959515333704 28.876701636113612 0.01803556683760252 0.024960156415460382 8.681612911326543 2.162197649648366 14.651395011488184 -74.50057012490979 24.660057602861777 -11.352286440287397 -16.64697216651615 3.302736896970104 -83.93442211930248 -23.41440516307889 -2.7387821048466328 1.6087027294114522 -0.48266716217693373 0.05034865993582774 -8.156157379310079 -0.040305598281030176 -0.0328383623186983 44.535882680063125 0.014054932710415495 -0.024577908451953262 44.5704261903109 12.47499928876891 -0.03925917562898207 -0.004514886728608534 0.0376569982791911 -0.009890893057144419 -0.01911492870653865 -0.009447598160468171 -0.006907335263051237 -0.000870884248206175 11.083241818964913 0.01863490154637866 -0.03853304436729689 -0.025469077019409887 0.01790397524581754 0.01190294247219175 0.006246684807772454 0.012815428467913288 -0.0025249997569253145 4.760476720664153 0.011216279983118643 -0.0036133886664893363 -0.03326345303718871 -0.036320382167372586 -0.03309466913620227 -0.0028670373780545445 -0.017058658988868127 -0.04022662447923277 -5.574334055927677 0.016860734139107086 0.032138290323338176 -6.767764762571374 -0.01528291162198834 0.009111620834703982 -6.691172658053023 0.038678130101642796 -0.04493186043026957 -0.009751035879129363 0.022709182162182085 0.027449186951329252 8.03622412851963 3.484760345963506 -19.173760548101278 0.010639542411675225 10.43454569898203 -0.02495737727595308 -5.635034773249115 -15.67115181988354 3.229543176514832 -0.011904188452321244 0.004602519208078783 0.044604080971892744 0.029617211458594635 4.677261734839967 0.01851601880367294 12.4496736820117 -8.252445972688342 6.886340750716019 0.047947797589924124 46.36067337728353 0.0391967796262355 -4.283871303610309 -14.734432238492706 -3.8704024243481374 -0.022779100757445284 0.023108328653402087 0.016280134265380802 -0.021009050072764372 -10.743771387179368 -0.03969894693692731 
0.010921072589079359 -0.005900719700692675 0.046093951269304836 0.0030093433106895343 0.04931661827791579 0.017264424161867978 3.668087887683451 2.36887864620315 -1.893191222289697 -0.6379245655120931 3.6936333758810447 0.4011423815706483 -0.683174287358353 -1.5483805055487487 1.0076994013306917 -0.4902967395271377 -0.3863156513059354 -0.27753837714660723 0.11198083425120221 13.662286689116023 -1.4716085727057489 0.41007143466445634 0.18114262342567514 -3.8358389634914585 0.8740862520370386 -15.732657053271426 -0.32642519354878874 -8.3605151213995 2.980333839508891 -16.826845101513193 76.7228783737754 17.035835100480558 9.524034804743376 -0.5683107012527119 0.2658304254592815 87.74157515142015 21.11082986268575 -0.5252676793219552 -4.628286995411057 4.53387964161102 -0.16330581840427372 -1.5986096892896617 -0.035931645799264195 4.3224151826952105e-05 -56.221904227496246 0.024312566068906607 -0.0035085341630736746 -56.217868293429156 -38.76747238765888 0.003929382799687204 0.005493175356258596 0.04355640803948398 -0.03319093537573595 0.00698486658856624 0.032496434643075424 -0.003854533155722502 0.022266983604264736 -36.721786165913535 -0.014581959623022897 -0.004435217161747684 0.035642840659984965 -0.006881227159215478 0.011800804759950873 0.004228966298480228 -0.03334711489898583 -0.010296971735549084 -19.80363842957879 -0.011243180986520558 -0.037130480039156935 -0.039647098510400894 0.035989448929597684 -0.03875684728262953 -0.0045531989294651555 0.01785257227096937 -0.005266659467793683 24.06275604789307 0.011686600167131106 0.013858887490207847 28.819067379959062 0.0059620424486432995 0.03381935674814514 28.882950940181136 0.030674258389411336 0.04300500397083959 9.231314061900006 2.2895683694443356 14.716570063753196 -74.33667247448139 25.674771018525114 -11.616687283412073 -15.459977999432574 2.6083691413904453 -83.34696970913787 -23.21497588141693 -3.700209736422913 2.3157843180149578 -0.5219661437988402 0.09719367250299461 -8.116956009004403 -0.006311214728829431 0.04958554751134069 44.558452620761656 -0.030918422785955052 0.021418456314594474 44.55607320682494 12.43852125568263 0.020425716818936276 0.03432192210112484 0.024512429183003497 0.021679931946552135 0.03641029157723698 -0.047640261996521834 -0.013163072246826219 -0.005242745343954051 11.110213674775384 0.049827110508869656 -0.013810096071310824 0.021031792528296837 0.0005015334227777503 0.04796424246901242 -0.010443073966254825 0.03630963521078954 -0.007778419576400247 4.765768868916391 -0.022225325852836327 -0.04213276516415288 0.011854763916689628 0.011740046341355056 -0.007894857719233542 0.031754250409531275 0.03885752225535661 0.037289881064459275 -5.554575937318537 -0.0034769458297094825 0.013839419784836363 -6.719321930295609 -0.03631773817027247 0.019672512567519722 -6.6787795211805445 -0.022851312974138026 0.029395648648568234 -0.03705755677579209 -0.016554278575825955 0.04592875533435793 8.009310893023402 3.469093482867207 -19.238744545293866 -0.016272429666352232 10.392268123585973 0.006722897654039129 -5.6121354474410285 -15.6892800367095 3.224943252087854 -0.007770211030314606 -0.02115806087448445 -0.004538313224090613 -0.014667109795863435 4.730506711213071 0.045611615534838876 12.454186095152846 -8.26225523570124 6.928498628927778 -0.004901633158492991 46.34613086703069 0.04935025074207954 -4.360207715248299 -14.775306047944854 -3.8204341520271674 0.033055506036360933 0.027883654317322815 0.015537149218097518 0.015477633211056338 -10.733271222811192 0.009591859572814526 
-0.004887869967177186 -0.014979557204483896 -0.018039525558862745 0.025883652392090385 0.016048043211956665 -0.03461536031772391 4.013293679142008 2.387783982197957 -1.9441004419130663 -0.5908809891384962 3.7123528897039333 0.31534768378957745 -0.6088118598459434 -1.4889808920806085 0.927147083574041 -0.5173674209420378 -0.26331109979423395 -0.2723225704198787 -0.0033456932798488284 13.928622406960995 -1.3521000831405403 0.3766861759416885 0.29388284441038015 -3.266612651995776 0.7968179765628953 -15.518022072982406 -0.2810124927266177 -8.69654785548885 3.04705189466912 -17.030609344090806 77.26495129583114 18.761946972811764 8.961442352326847 -2.063089436331163 0.0724298692566823 86.52927664929844 21.12083415357997 -0.5370035624272363 -4.8374728064279156 4.5156980375921005 -0.1532623829540229 -1.6137980502449003 -0.0225160612709866 0.004626833058475331 -56.223873812934734 0.02563778456384883 -0.0401706930227205 -56.264720525756104 -38.791814243336106 -0.0007302186615556368 0.043957553819926456 0.009791240468096603 0.032055326062481834 0.04370246001328915 -0.04620184158526937 -0.010655856188368344 0.014405585055654003 -36.71279455539313 0.030591652672536274 0.03514318742972108 0.02936819026038894 -0.008932659119608048 -0.001284787683495783 0.010162021356729667 0.026001525147824295 -0.018842724566249774 -19.708338311088852 0.042507809876868446 -0.04171562977880836 0.037983719367070755 0.03503273439235921 -9.01325548619568e-05 -0.007070709227144257 0.006988573198563061 0.035686527370320326 24.01184964107072 -0.031258039973024655 0.024813676343746493 28.890789774785098 -0.03497441151847188 -0.0389417874906884 28.871710329423653 0.013278767622792302 0.0005467899976162467 9.68079339326417 2.278983101832268 14.914039517072647 -74.14455366834851 26.493032410257047 -12.199483937426278 -14.799548814085846 2.5374153669997486 -83.27394789475008 -23.48815386173808 -4.804675784073785 3.1260630382123518 -0.4569291825140954 0.09212152409192152 -8.115911634159062 0.03631686754239196 -0.0005035962333360367 44.55681878617389 -0.021484623477386073 0.033664023156386655 44.563219791105944 12.417967239915866 0.017651271393749925 0.03581086478328456 -0.03535389184010873 -0.02426648339537806 -0.03872413893269863 0.018596648209062632 0.00011067911180512159 -0.03970657360946966 11.092512547953469 0.03325357860732806 0.011464393289783163 0.03385641454582654 -0.014231844115282489 -0.040387207040524654 0.03589651649791143 -0.01461255060041132 -0.04391025614790582 4.752974651671748 -0.03587804271789237 0.014401271513489309 -0.02383484727752811 -0.01927556226171565 0.003901284144235211 0.049615810840236474 0.021335218206327205 -0.03112350361618809 -5.6308592438923535 -0.0380681766216903 -0.047270242451778695 -6.70960544413456 -0.0401315868278537 -0.020439888974594807 -6.692800385076354 -0.016315526041996035 -0.003883226145630344 -0.044229782334442164 -6.973311610040208e-05 0.004442612039562915 8.014551141583368 3.46151595887474 -19.205369472086552 -0.03011106024776338 10.421024785809841 0.024757608009320014 -5.66358218936184 -15.664811039554346 3.1719976431066854 -0.018849732798692842 -0.009994379678819946 0.01785064241868529 -0.04966249594484158 4.710158291665905 -0.036728127788056286 12.440600418838818 -8.19237399587659 6.895745902292455 0.03895136221629413 46.39334432361416 -0.013059571704254475 -4.284066473413326 -14.734817038797601 -3.84752139296023 0.006104366917478217 -0.038646819033616914 -0.02248173220289274 0.044150260222047925 -10.744275352868874 -0.005964390987338694 
-0.03829998348085646 -0.015971587633575365 -0.029699860078186265 -0.044408616903795974 0.028970163897506798 -0.03706473313251735 4.284067999730852 2.303530989035634 -2.041261803045962 -0.6398050669596597 3.6479847702468606 0.31970331176493805 -0.6537219962121225 -1.5704433964361528 0.8633079958782388 -0.45545419716637725 -0.25584630052543555 -0.23661967839921927 -0.03348348306142905 14.104081758217312 -1.1062350184881793 0.32117690127583176 0.5196352429858111 -2.661847084750566 0.7512895539106723 -15.2929743247594 -0.2462330335715036 -8.958997581785237 3.1318368424124836 -17.185439140125364 77.84540264701053 20.129997101380976 8.578673033233361 -3.252055249836346 0.10652315925705483 86.31445578916632 21.137867076244653 -0.536562090581723 -5.120207681564818 4.573616797283106 -0.12463280958234935 -1.6410372810925247 0.0013574815970099836 0.014969328589878863 -56.20999979907501 -0.019043730890307375 -0.03841761464571338 -56.26957821546872 -38.785544574903724 0.01536126517763779 0.018637974659018043 0.04180521206363987 -0.022921316217028823 0.02800939475252085 -0.03653116528979389 -0.004649535154042341 -0.029573397815642645 -36.67084775715776 -0.02869827921779245 -0.00869145495968412 -0.009724268162887965 0.030718793136298442 -0.014456240098528528 0.04336068003322489 -0.004493417731746698 0.04944712252082411 -19.749778446431026 0.019127312234514096 -0.04586114135591609 0.04385227984177895 -0.007840476442809727 0.003586331311938839 -0.03363578415836953 0.043667580835146075 -0.010526205121631096 24.05572679681005 -0.012760377552206428 -0.034990633173080495 28.911590407551646 -0.005123336472414721 0.011260006944891042 28.87924324029916 -0.0267568177409192 0.02345123176534258 10.110074975729948 2.368770646818396 15.001815659063453 -73.88479087614104 26.816699742864078 -12.840993335356915 -14.91586521476212 2.7903191983923117 -83.96893363407501 -23.5785843211897 -5.753732309851019 3.8548079906853085 -0.43532247295580506 0.045781984757655714 -8.08944254071916 -0.03573192580807415 -0.01702756098087456 44.53279886120884 -0.03464362109357533 0.021681653781856765 44.5661866296869 12.467361775625653 -0.010038286840046142 -0.013376725044831585 0.034227819777828926 0.015315113025000996 0.025874648113035303 0.025844949449761918 -0.017925537647374427 0.03781750294630969 11.086450559656235 -0.013703251526452909 -0.01837954984412875 0.04914571375058574 0.024104508241151186 0.019831343112470652 -0.046164309628581236 -0.04072416056308155 0.044238751621851875 4.758828753485335 -0.013009943863875021 -0.017588522443797314 0.0265392952937497 -0.03713923063466602 0.043489175332905694 -0.0268885008725327 -0.04946604545608324 -0.014763543123770734 -5.641779335739259 -0.010893969014131982 0.039534150952794556 -6.694880563702723 0.048007277164690706 -0.010046514172838968 -6.679032310322976 -0.03729213284945032 -0.030692888075242133 -0.020294864869827955 -0.008606405011314558 0.023932701385063697 8.05060253769753 3.48856957354256 -19.180612462713537 0.01846653362561126 10.393616913728492 -0.004496512534902894 -5.637032884989062 -15.610287906678487 3.2278356301656066 -0.03696210690781832 -0.04420987205535244 -0.02696142504555288 0.027185060521932005 4.6730412562783155 0.04480240345076791 12.446903018419954 -8.273093214221216 6.89374942589142 -0.03549415202641604 46.410486930967224 -0.011080337469600327 -4.296664199920675 -14.725933600791874 -3.88189824580908 -0.0074316446634932285 -0.039011715202204485 0.005918318232921511 0.04080355582491034 -10.740262993547027 0.010124293675571983 
